name rise49.5252peak65.1548fall88.8305.mot
datacolumns 19
datarows 27
range 8.00329500000000 8.04662700000000
endheader
time	ground_force1_vx	ground_force1_vy	ground_force1_vz	ground_force1_px	ground_force1_py	ground_force1_pz	ground_force2_vx	ground_force2_vy	ground_force2_vz	ground_force2_px	ground_force2_py	ground_force2_pz	ground_torque1_x	ground_torque1_y	ground_torque1_z	ground_torque2_x	ground_torque2_y	ground_torque2_z	
8.00329500000000	-0.09849100000000	681.19263899999999	40.48551400000000	0.24459500000000	0.00000000000000	0.10531300000000	0.00000000000000	0.00000000000000	0.00000000000000	0.00000000000000	0.00000000000000	0.00000000000000	0.00000000000000	18.90094400000000	0.00000000000000	0.00000000000000	0.00000000000000	0.00000000000000	
8.00496800000000	-0.50962600000000	681.69186400000001	40.47872400000000	0.24424600000000	0.00000000000000	0.10527000000000	0.00000000000000	0.00000000000000	0.00000000000000	0.00000000000000	0.00000000000000	0.00000000000000	0.00000000000000	18.98917800000000	0.00000000000000	0.00000000000000	0.00000000000000	0.00000000000000	
8.00663500000000	-0.93334300000000	682.25372000000004	40.47383500000000	0.24391800000000	0.00000000000000	0.10522400000000	0.00000000000000	0.00000000000000	0.00000000000000	0.00000000000000	0.00000000000000	0.00000000000000	0.00000000000000	19.08294500000000	0.00000000000000	0.00000000000000	0.00000000000000	0.00000000000000	
8.00829400000000	-1.37006800000000	682.87832600000002	40.47063700000000	0.24360900000000	0.00000000000000	0.10517600000000	0.00000000000000	0.00000000000000	0.00000000000000	0.00000000000000	0.00000000000000	0.00000000000000	0.00000000000000	19.18197600000000	0.00000000000000	0.00000000000000	0.00000000000000	0.00000000000000	
8.00996600000000	-1.82017400000000	683.56584999999995	40.46893700000000	0.24331300000000	0.00000000000000	0.10512600000000	0.00000000000000	0.00000000000000	0.00000000000000	0.00000000000000	0.00000000000000	0.00000000000000	0.00000000000000	19.28599500000000	0.00000000000000	0.00000000000000	0.00000000000000	0.00000000000000	
8.01163200000000	-2.28398000000000	684.31649900000002	40.46856400000000	0.24302700000000	0.00000000000000	0.10507400000000	0.00000000000000	0.00000000000000	0.00000000000000	0.00000000000000	0.00000000000000	0.00000000000000	0.00000000000000	19.39472900000000	0.00000000000000	0.00000000000000	0.00000000000000	0.00000000000000	
8.01330200000000	-2.76175000000000	685.13051800000005	40.46936400000000	0.24274600000000	0.00000000000000	0.10502100000000	0.00000000000000	0.00000000000000	0.00000000000000	0.00000000000000	0.00000000000000	0.00000000000000	0.00000000000000	19.50789700000000	0.00000000000000	0.00000000000000	0.00000000000000	0.00000000000000	
8.01496200000000	-3.25368800000000	686.00817600000005	40.47120600000000	0.24246800000000	0.00000000000000	0.10496600000000	0.00000000000000	0.00000000000000	0.00000000000000	0.00000000000000	0.00000000000000	0.00000000000000	0.00000000000000	19.62522300000000	0.00000000000000	0.00000000000000	0.00000000000000	0.00000000000000	
8.01662800000000	-3.75994200000000	686.94976399999996	40.47398000000000	0.24218700000000	0.00000000000000	0.10491100000000	0.00000000000000	0.00000000000000	0.00000000000000	0.00000000000000	0.00000000000000	0.00000000000000	0.00000000000000	19.74642900000000	0.00000000000000	0.00000000000000	0.00000000000000	0.00000000000000	
8.01829900000000	-4.28059800000000	687.95558100000005	40.47759500000000	0.24190100000000	0.00000000000000	0.10485500000000	0.00000000000000	0.00000000000000	0.00000000000000	0.00000000000000	0.00000000000000	0.00000000000000	0.00000000000000	19.87124000000000	0.00000000000000	0.00000000000000	0.00000000000000	0.00000000000000	
8.01996200000000	-4.81567900000000	689.02592900000002	40.48198500000000	0.24160400000000	0.00000000000000	0.10479800000000	0.00000000000000	0.00000000000000	0.00000000000000	0.00000000000000	0.00000000000000	0.00000000000000	0.00000000000000	19.99938000000000	0.00000000000000	0.00000000000000	0.00000000000000	0.00000000000000	
8.02163400000000	-5.36514900000000	690.16110200000003	40.48710500000000	0.24129500000000	0.00000000000000	0.10474100000000	0.00000000000000	0.00000000000000	0.00000000000000	0.00000000000000	0.00000000000000	0.00000000000000	0.00000000000000	20.13058200000000	0.00000000000000	0.00000000000000	0.00000000000000	0.00000000000000	
8.02330200000000	-5.92890600000000	691.36137599999995	40.49293300000000	0.24096900000000	0.00000000000000	0.10468400000000	0.00000000000000	0.00000000000000	0.00000000000000	0.00000000000000	0.00000000000000	0.00000000000000	0.00000000000000	20.26458000000000	0.00000000000000	0.00000000000000	0.00000000000000	0.00000000000000	
8.02496200000000	-6.50678700000000	692.62700199999995	40.49946700000000	0.24062400000000	0.00000000000000	0.10462700000000	0.00000000000000	0.00000000000000	0.00000000000000	0.00000000000000	0.00000000000000	0.00000000000000	0.00000000000000	20.40111200000000	0.00000000000000	0.00000000000000	0.00000000000000	0.00000000000000	
8.02662800000000	-7.09856600000000	693.95818999999995	40.50673000000000	0.24025500000000	0.00000000000000	0.10457000000000	0.00000000000000	0.00000000000000	0.00000000000000	0.00000000000000	0.00000000000000	0.00000000000000	0.00000000000000	20.53992600000000	0.00000000000000	0.00000000000000	0.00000000000000	0.00000000000000	
8.02829600000000	-7.70395200000000	695.35510699999998	40.51476700000000	0.23986200000000	0.00000000000000	0.10451400000000	0.00000000000000	0.00000000000000	0.00000000000000	0.00000000000000	0.00000000000000	0.00000000000000	0.00000000000000	20.68077400000000	0.00000000000000	0.00000000000000	0.00000000000000	0.00000000000000	
8.02996100000000	-8.32259500000000	696.81785900000000	40.52364200000000	0.23944000000000	0.00000000000000	0.10445900000000	0.00000000000000	0.00000000000000	0.00000000000000	0.00000000000000	0.00000000000000	0.00000000000000	0.00000000000000	20.82341500000000	0.00000000000000	0.00000000000000	0.00000000000000	0.00000000000000	
8.03162700000000	-8.95408200000000	698.34648800000002	40.53344500000000	0.23898800000000	0.00000000000000	0.10440500000000	0.00000000000000	0.00000000000000	0.00000000000000	0.00000000000000	0.00000000000000	0.00000000000000	0.00000000000000	20.96761700000000	0.00000000000000	0.00000000000000	0.00000000000000	0.00000000000000	
8.03329400000000	-9.59793900000000	699.94095700000003	40.54428400000000	0.23850400000000	0.00000000000000	0.10435300000000	0.00000000000000	0.00000000000000	0.00000000000000	0.00000000000000	0.00000000000000	0.00000000000000	0.00000000000000	21.11315700000000	0.00000000000000	0.00000000000000	0.00000000000000	0.00000000000000	
8.03496300000000	-10.25363500000000	701.60114399999998	40.55628800000000	0.23798600000000	0.00000000000000	0.10430100000000	0.00000000000000	0.00000000000000	0.00000000000000	0.00000000000000	0.00000000000000	0.00000000000000	0.00000000000000	21.25981800000000	0.00000000000000	0.00000000000000	0.00000000000000	0.00000000000000	
8.03663400000000	-10.92057800000000	703.32682999999997	40.56960700000000	0.23743200000000	0.00000000000000	0.10425100000000	0.00000000000000	0.00000000000000	0.00000000000000	0.00000000000000	0.00000000000000	0.00000000000000	0.00000000000000	21.40739600000000	0.00000000000000	0.00000000000000	0.00000000000000	0.00000000000000	
8.03830200000000	-11.59812600000000	705.11769300000003	40.58440900000000	0.23684200000000	0.00000000000000	0.10420300000000	0.00000000000000	0.00000000000000	0.00000000000000	0.00000000000000	0.00000000000000	0.00000000000000	0.00000000000000	21.55569300000000	0.00000000000000	0.00000000000000	0.00000000000000	0.00000000000000	
8.03996700000000	-12.28557800000000	706.97329800000000	40.60088200000000	0.23621500000000	0.00000000000000	0.10415600000000	0.00000000000000	0.00000000000000	0.00000000000000	0.00000000000000	0.00000000000000	0.00000000000000	0.00000000000000	21.70452000000000	0.00000000000000	0.00000000000000	0.00000000000000	0.00000000000000	
8.04163200000000	-12.98218600000000	708.89308700000004	40.61922900000000	0.23555000000000	0.00000000000000	0.10411200000000	0.00000000000000	0.00000000000000	0.00000000000000	0.00000000000000	0.00000000000000	0.00000000000000	0.00000000000000	21.85370000000000	0.00000000000000	0.00000000000000	0.00000000000000	0.00000000000000	
8.04329700000000	-13.68715200000000	710.87637700000005	40.63967100000000	0.23484700000000	0.00000000000000	0.10406900000000	0.00000000000000	0.00000000000000	0.00000000000000	0.00000000000000	0.00000000000000	0.00000000000000	0.00000000000000	22.00306400000000	0.00000000000000	0.00000000000000	0.00000000000000	0.00000000000000	
8.04496700000000	-14.39963200000000	712.92234800000006	40.66244500000000	0.23410600000000	0.00000000000000	0.10402800000000	0.00000000000000	0.00000000000000	0.00000000000000	0.00000000000000	0.00000000000000	0.00000000000000	0.00000000000000	22.15245000000000	0.00000000000000	0.00000000000000	0.00000000000000	0.00000000000000	
8.04662700000000	-15.11874200000000	715.03003699999999	40.68780000000000	0.23332700000000	0.00000000000000	0.10398900000000	0.00000000000000	0.00000000000000	0.00000000000000	0.00000000000000	0.00000000000000	0.00000000000000	0.00000000000000	22.30170700000000	0.00000000000000	0.00000000000000	0.00000000000000	0.00000000000000	
